<svg id="Layer_3" data-name="Layer 3" xmlns="http://www.w3.org/2000/svg" viewBox="0 0 151.39 151.39"><title>logo_flat</title><path d="M278.54,368.5a67,67,0,0,0-8-2.12c-1.54-.3-3.64-.66-6.16-.92a69,69,0,0,0-9-.31c-2.38.08-4.34.27-5.66.42-2.28.27-4.12.6-5.31.84-1.55.31-3.57.77-5.9,1.46a65.44,65.44,0,0,0-7,2.49c-.94.4-2.39,1-4.14,1.92s-3.36,1.82-4.44,2.47-2.52,1.56-4.24,2.8c-1.32.94-2.92,2.16-4.67,3.67a66.08,66.08,0,0,0-5,4.75c-1.27,1.34-2.73,3-4.27,5-1,1.24-2,2.7-3.12,4.37-1.34,2-2.42,3.94-3.29,5.6s-1.56,3.16-2,4.15c-.66,1.51-1.18,2.84-1.57,3.92s-1.07,3-1.7,5.34c-.41,1.53-.7,2.83-.9,3.79-.31,1.44-.51,2.67-.66,3.62-.11.78-.32,2.23-.49,4.08s-.21,3.24-.24,4.17-.05,2.47,0,4.41.22,3.52.3,4.31.24,2.17.5,3.77c.37,2.3.79,4.17,1.09,5.37s.77,3,1.39,4.82c.73,2.23,1.45,4,2,5.22s1.23,2.82,2.33,4.92,2,3.54,2.69,4.65,2,3,3.58,5.1c.88,1.14,1.89,2.37,3,3.65,1.5,1.69,2.87,3.05,3.93,4.05s2.2,2,3.62,3.19a63.32,63.32,0,0,0,5.55,4.08,66.52,66.52,0,0,0,6.71,3.89c2.3,1.15,4.23,2,5.51,2.47s3.28,1.24,5.74,2a67.32,67.32,0,0,0,6.86,1.61c1.23.22,3.43.58,6.19.81,1.62.14,3,.2,4.15.22,1.57,0,3.57,0,5.9-.13s4.16-.39,5.32-.56c2.53-.37,4.7-.83,6.43-1.26a67.6,67.6,0,0,0,6.82-2.09c1.26-.46,3.21-1.22,5.52-2.32,1.7-.8,3.6-1.79,5.62-3a66.07,66.07,0,0,0,5.6-3.74,65,65,0,0,0,5.16-4.24c1.28-1.17,2.88-2.71,4.61-4.62,1.06-1.17,2.19-2.51,3.36-4,1.31-1.7,2.34-3.2,3.1-4.36,1.44-2.22,2.52-4.16,3.26-5.6a65.11,65.11,0,0,0,3-6.69c.93-2.41,1.57-4.48,2-6a66.94,66.94,0,0,0,1.62-7.37,67.9,67.9,0,0,0,.76-7.33,67.05,67.05,0,0,0-1.76-19,66.17,66.17,0,0,0-8.05-19.34,74.26,74.26,0,0,0-4.29-6.14s-3.82-5.49-4.37-5c-.64,0-1.3.62-2.82,1.76-1.81,1.32-1.3.8-3.86,2.61s-4.3,3.17-5.37,4-2.51,2-4.26,3.58c-1,.9-2.22,2-3.55,3.28-1.08,1-2.77,2.71-4.74,4.85-.7.77-1.91,2.1-3.36,3.83-.79.93-2.34,2.81-4.2,5.28-.59.8-1.77,2.39-3.19,4.48-.46.67-1.44,2.13-2.65,4-.63,1-2,3.2-3.6,6.09-.33.6-1.13,2-2.1,3.92-1.2,2.31-1.8,3.47-2.21,4.46-1.4,3.31-1.36,4.71-2.23,4.88-.49.1-1-.24-3.18-2.77-1.87-2.16-3.29-4-3.71-4.51-1.25-1.59-2.14-2.65-3.92-4.79-1.43-1.71-3.29-3.28-5.09-5.28-1.3-1.45-4.2-4-4.2-4l-4.25-3.16-3.84-2.16s-3.91-1.73-4.06-1.88c-.45-.46,2.69-4.27,3.28-5a40.42,40.42,0,0,1,4.12-4.48,35.78,35.78,0,0,1,4.22-3.34,37.33,37.33,0,0,1,5.1-2.9,36.53,36.53,0,0,1,11.37-3.2,36.06,36.06,0,0,1,5.95-.19,34.9,34.9,0,0,1,4.93.57,36.68,36.68,0,0,1,8.94,2.88,37.73,37.73,0,0,1,4.26,2.37,39,39,0,0,1,3.67,2.7c.47.4,1.23,1.05,2.11,1.92a37.79,37.79,0,0,1,2.67,2.9,36.56,36.56,0,0,1,6.69,12.33,35.78,35.78,0,0,1,1.13,4.66,36.17,36.17,0,0,1,.54,5.67,34.49,34.49,0,0,1-.14,4.05,36.54,36.54,0,0,1-3.35,12.31,38,38,0,0,1-2.37,4.26,36.89,36.89,0,0,1-4.3,5.44A37,37,0,0,1,274,464.69a35.6,35.6,0,0,1-5,2.06,36,36,0,0,1-9.85,1.77,37.52,37.52,0,0,1-6.49-.3,35.63,35.63,0,0,1-5.74-1.25A37.27,37.27,0,0,1,237,462.3a36.74,36.74,0,0,1-11.26-12.05,37.3,37.3,0,0,1-2.57-5.37" transform="translate(-181.84 -356.12)" style="fill:none;stroke:#231f20;stroke-linecap:round;stroke-miterlimit:10;stroke-width:18px"/></svg>