<svg xmlns="http://www.w3.org/2000/svg" viewBox="0 0 648 648"><title>Artboard 8</title><path d="M648,319.81c0-1.39,0-2.78-.08-4.17,0-1.2-.07-2.39-.11-3.57s-.09-2.23-.14-3.34c0-.11,0-.21,0-.31q-.09-1.92-.21-3.84c-.08-1.29-.16-2.58-.25-3.88-.26-3.62-.58-7.25-1-10.87-.06-.61-.13-1.22-.2-1.83q-1.51-13.68-4.2-27.24A323.8,323.8,0,0,0,629.55,216c-.39-1.1-.78-2.2-1.18-3.29s-.81-2.19-1.22-3.28q-2.4-6.36-5.07-12.61c-.36-.85-.73-1.71-1.1-2.56-.53-1.2-1.06-2.4-1.6-3.6-1-2.12-2-4.24-3-6.34-.12-.26-.25-.52-.37-.79A323.73,323.73,0,0,0,593.43,144q-7.66-11.48-16.29-22.23c-.22-.28-.44-.57-.67-.85a6.28,6.28,0,0,0-.47-.58h0l-2-2.42c-.77-.94-1.54-1.86-2.32-2.79-.13-.16-.26-.32-.41-.48-.76-.89-1.52-1.79-2.29-2.67l-2.16-2.47c-1.23-1.4-2.48-2.78-3.75-4.16-.58-.65-1.18-1.29-1.77-1.93-1.51-1.62-3-3.23-4.59-4.82,0,0,0,0,0,0-.59-.61-1.18-1.23-1.78-1.84L553.1,94.9l-1.82-1.81-1.84-1.78,0,0A36,36,0,0,0,504,93.18c-.33.29-.65.58-1,.89l-.31.3-.61.61-.3.31-25.08,25.07-1.8,1.8h0L453.09,144,432,165.09l-6.18,6.18-2.55,2.55q-.74-.49-1.47-1l-1.48-1c-1-.62-2-1.24-3-1.85q-2.79-1.71-5.63-3.28c-1.27-.71-2.54-1.4-3.83-2.08-.95-.51-1.9-1-2.86-1.47-.72-.37-1.44-.73-2.17-1.08s-1.64-.8-2.47-1.18l-1.67-.77c-1-.45-2-.89-2.93-1.31L393.6,158c-1.36-.57-2.73-1.12-4.1-1.66a180.35,180.35,0,0,0-29.5-8.67q-5.25-1.06-10.55-1.82c-2.73-.39-5.46-.71-8.21-1-1.27-.12-2.54-.23-3.82-.32q-1.32-.1-2.64-.18-3.22-.2-6.47-.27l-2.16,0c-1.07,0-2.14,0-3.22,0h-.48l-2.23,0-.77,0-1.94.06c-.72,0-1.43.05-2.15.09s-1.49.07-2.24.12l-2.08.13c-1.43.11-2.87.23-4.3.36-2.74.27-5.47.59-8.2,1q-5.3.75-10.54,1.82-4.31.87-8.58,2l-2.84.75h0c-1.25.35-2.5.7-3.75,1.07l-2.15.65c-1.28.4-2.57.81-3.85,1.24s-2.28.77-3.41,1.18-2,.74-3.06,1.12c-1.36.52-2.72,1-4.08,1.6-3.38,1.37-6.74,2.85-10,4.44L244,162.7c-.9.44-1.8.9-2.69,1.37q-1.74.9-3.45,1.83h0c-1.14.62-2.28,1.26-3.41,1.9-.64.36-1.27.73-1.9,1.11l-.44.26q-2.67,1.59-5.28,3.26a2.9,2.9,0,0,0-.29.19l-1.82,1.2c-1.06.7-2.12,1.41-3.16,2.14l-1.77,1.24c-1.28.9-2.55,1.83-3.8,2.77h0l-1.57,1.19-1.56,1.21-1.69,1.35c-.56.45-1.12.9-1.67,1.36-.88.72-1.76,1.46-2.63,2.21s-1.46,1.26-2.18,1.9l-.12.11c-1,.85-1.9,1.71-2.85,2.58-.56.53-1.12,1-1.68,1.59l-1.68,1.6-1.64,1.64a36,36,0,0,0,0,50.92L216,266.92l6.17,6.17,4.35,4.35a.75.75,0,0,1,.07-.12.31.31,0,0,0-.06.13L273.09,324,288,338.92l10.54,10.54c.41.41.83.81,1.25,1.19.21.19.43.39.65.57a34.18,34.18,0,0,0,2.72,2.15l.71.48.72.48c.24.16.49.31.74.46l.74.44.76.43.77.4.79.39.79.37.8.35.81.33.83.32.83.29c.83.28,1.68.53,2.55.76l.78.19,1,.21.74.15,1,.17.87.12,1.16.13.85.07,1,.06h.26l1.29,0c.45,0,.91,0,1.36,0s.95,0,1.41-.07c.61,0,1.21-.11,1.81-.19l.83-.11,1.07-.18.74-.15c.73-.14,1.46-.32,2.19-.51s1.42-.41,2.12-.64,1.12-.4,1.67-.62l.81-.33.8-.35.8-.37.78-.39.77-.4.76-.43.74-.44c.25-.15.5-.3.74-.46l.72-.48.71-.48a34.18,34.18,0,0,0,2.72-2.15c.22-.18.44-.38.65-.57.42-.38.84-.78,1.25-1.19L360,338.91,374.91,324l36-36,10.56-10.56c.17.35.34.7.5,1.06,0,0,0,0,0,.05.37.8.73,1.59,1.07,2.39q1.53,3.46,2.79,7.06c.13.36.25.71.36,1.07.07.19.13.38.19.57.29.86.57,1.73.84,2.6s.57,1.91.83,2.86q1.4,5,2.29,10.13c.25,1.45.48,2.91.67,4.36.07.5.13,1,.19,1.49.1.86.19,1.72.28,2.58.17,1.71.3,3.44.37,5.17,0,.86.07,1.73.09,2.59s0,1.71,0,2.58h0c0,.86,0,1.72,0,2.59s0,1.73-.09,2.59c-.07,1.73-.2,3.46-.37,5.17-.09.86-.18,1.72-.28,2.58-.19,1.73-.44,3.44-.74,5.14s-.61,3.42-1,5.11q-.62,2.88-1.41,5.69c-.18.62-.35,1.25-.54,1.88-.24.83-.5,1.67-.77,2.5s-.54,1.65-.83,2.48l-.09.26c-.26.74-.52,1.47-.81,2.2s-.63,1.64-1,2.45-.61,1.49-.94,2.23q-.08.19-.18.42c-.31.72-.63,1.45-1,2.16a.09.09,0,0,1,0,.06c-.09.2-.18.4-.28.6l-.21.45-.21.43-.21.44c-.26.54-.53,1.08-.81,1.61a.7.7,0,0,1-.09.17c-.38.76-.78,1.52-1.19,2.26s-.78,1.44-1.19,2.14a1.74,1.74,0,0,1-.15.26c-.38.67-.77,1.32-1.17,2a4.78,4.78,0,0,1-.26.42c-.26.44-.53.87-.81,1.31s-.6,1-.91,1.42c-.18.28-.36.56-.55.83s-.49.75-.75,1.12l-.86,1.23c-.19.27-.39.55-.6.83-.33.47-.67.94-1,1.4s-.86,1.17-1.32,1.75-.95,1.21-1.44,1.81a2.39,2.39,0,0,1-.21.26c-.55.68-1.12,1.36-1.7,2s-1.2,1.39-1.82,2.07-1.24,1.36-1.88,2c-.4.42-.8.84-1.21,1.25l-.5.52-.24.23-.15.15-.07.08-.85.83c-.3.3-.62.6-.93.89l-2,1.88c-.68.62-1.37,1.23-2.07,1.82s-1.3,1.11-2,1.65l-.48.38c-.52.43-1.05.85-1.58,1.26s-1.13.88-1.71,1.29-1.12.84-1.69,1.25l-.5.36-2,1.35c-.65.43-1.3.87-2,1.29a3,3,0,0,1-.38.24c-.67.43-1.35.86-2,1.27s-1.46.88-2.19,1.3a.21.21,0,0,1-.1.06c-.74.42-1.48.84-2.23,1.24s-1.54.83-2.31,1.22-1.46.74-2.19,1.09a1.38,1.38,0,0,1-.3.14l-.12.07c-.7.34-1.41.67-2.12,1s-1.53.68-2.3,1l-.29.13c-.63.27-1.26.52-1.89.77-.3.13-.61.25-.93.37s-.9.35-1.36.51-1.11.42-1.67.61l-.39.14c-.58.2-1.16.4-1.74.58s-1.06.36-1.6.52l-.36.11c-.64.21-1.29.4-1.94.58l-1,.28c-.41.12-.82.24-1.24.34s-1,.27-1.52.39-.88.22-1.33.32l-.85.2c-.5.12-1,.23-1.52.33l-1.61.33c-.69.14-1.39.27-2.09.39l-1.63.28-1.24.19q-1.1.17-2.19.3c-.9.12-1.8.22-2.71.31-.75.08-1.5.15-2.26.21l-.71.06-2,.13-2,.09c-1.06,0-2.13.07-3.2.07h-1.72c-1.07,0-2.15,0-3.22-.07-1.36-.05-2.71-.12-4.06-.23l-.47,0c-1.72-.13-3.43-.31-5.14-.53l-2.34-.32-.84-.13c-.71-.11-1.42-.23-2.12-.36l-.24,0-1.79-.34-1.28-.26c-.68-.14-1.35-.29-2-.45s-1.36-.32-2-.49l-1.14-.3-1.68-.45-.54-.16c-.78-.21-1.56-.45-2.33-.69s-1.4-.44-2.09-.67l-1-.34c-.27-.08-.53-.17-.8-.27h0l-1.49-.53-1.9-.73-.35-.13c-.77-.31-1.54-.62-2.3-.95s-1.61-.69-2.41-1.05-1.42-.64-2.12-1a1.58,1.58,0,0,1-.26-.13c-.59-.28-1.18-.57-1.76-.87-.87-.44-1.74-.89-2.61-1.36s-1.71-.94-2.56-1.43-1.51-.86-2.25-1.33-1.36-.84-2-1.27a2.36,2.36,0,0,1-.38-.24c-.66-.42-1.31-.86-2-1.29s-1.43-1-2.13-1.48-1.41-1-2.1-1.54-1.25-.94-1.86-1.42c-.24-.17-.47-.36-.71-.56l-1.38-1.11c-.61-.5-1.22-1-1.82-1.53s-1.15-1-1.71-1.51c-1.45-1.3-2.88-2.65-4.27-4s-2.74-2.82-4-4.27c-.51-.56-1-1.13-1.51-1.71s-1-1.21-1.53-1.82c-.37-.45-.75-.92-1.11-1.38-.2-.24-.39-.47-.56-.71-.48-.61-1-1.23-1.42-1.86s-1-1.39-1.54-2.1-1-1.41-1.48-2.13-.87-1.3-1.29-2a2.36,2.36,0,0,1-.24-.38c-.43-.68-.86-1.36-1.27-2s-.92-1.49-1.33-2.25-1-1.7-1.43-2.56-.92-1.74-1.36-2.61c-.3-.58-.59-1.17-.87-1.76a1.58,1.58,0,0,1-.13-.26c-.34-.7-.67-1.41-1-2.12s-.71-1.6-1-2.41-.64-1.53-1-2.3c0-.12-.09-.23-.13-.35-.25-.63-.49-1.26-.73-1.9s-.36-1-.53-1.49h0c-.1-.27-.19-.53-.27-.8s-.23-.66-.34-1c-.23-.69-.46-1.39-.67-2.09s-.48-1.55-.69-2.33c-.06-.18-.11-.36-.16-.54q-.24-.84-.45-1.68-.17-.57-.3-1.14c-.17-.68-.34-1.35-.49-2s-.31-1.34-.45-2c-.09-.43-.18-.86-.26-1.28-.12-.59-.23-1.19-.34-1.79,0-.08,0-.16,0-.24-.13-.7-.25-1.41-.36-2.12,0-.28-.09-.56-.13-.84-.11-.78-.22-1.56-.32-2.34-.22-1.71-.4-3.42-.53-5.14,0-.16,0-.32,0-.47-.11-1.35-.18-2.7-.23-4.06,0-1.07-.07-2.15-.07-3.22V315a35.81,35.81,0,0,0-10.42-25.31c-.56-.59-1.16-1.15-1.78-1.69a36,36,0,0,0-56.53,12,35.29,35.29,0,0,0-2.55,7.78s0,0,0,.08a2.29,2.29,0,0,1,0,.25l-.09,1.11c0,.37-.07.75-.09,1.12s-.07.9-.1,1.35c0,.26,0,.51,0,.77,0,.58-.07,1.15-.1,1.73,0,1-.1,1.92-.13,2.88,0,.23,0,.47,0,.7v.09c-.08,2-.11,4.08-.11,6.13,0,1.06,0,2.11,0,3.17v.07c0,.33,0,.66,0,1,0,.91,0,1.82.08,2.73s.07,1.64.11,2.46c.08,1.47.17,2.94.28,4.4.06.77.13,1.53.19,2.29s.14,1.54.22,2.3c.11,1,.23,2.1.35,3.15.16,1.3.33,2.6.51,3.91h0c.17,1.14.34,2.29.53,3.43s.37,2.23.57,3.35c.11.63.22,1.25.34,1.87s.25,1.24.38,1.87c0,.09,0,.19,0,.28.14.64.27,1.27.41,1.91s.24,1.12.37,1.67.25,1.11.39,1.67q.57,2.46,1.23,4.91c.24.91.49,1.82.74,2.72.3,1.06.62,2.12.94,3.18.24.79.49,1.6.74,2.39s.53,1.63.8,2.44c.54,1.63,1.11,3.24,1.7,4.86.29.8.59,1.61.9,2.41.23.61.47,1.21.7,1.81l.72,1.79c.56,1.36,1.13,2.7,1.71,4,.29.67.59,1.34.89,2s.67,1.48,1,2.21c.46,1,.94,2,1.43,3s.85,1.73,1.3,2.59a179.43,179.43,0,0,0,10.17,17.41c2,3,4,5.89,6.17,8.73,1.65,2.21,3.36,4.37,5.11,6.5.45.56.92,1.11,1.39,1.66s.93,1.09,1.4,1.64l1.43,1.62c.59.67,1.19,1.34,1.8,2s1.21,1.32,1.83,2q1.85,2,3.77,3.89t3.89,3.77c.65.62,1.31,1.23,2,1.83s1.33,1.21,2,1.8l1.62,1.43,1.64,1.4c.55.47,1.1.94,1.66,1.39,2.13,1.75,4.29,3.46,6.5,5.11,2.84,2.14,5.76,4.2,8.73,6.17a179.43,179.43,0,0,0,17.41,10.17c.86.45,1.72.88,2.59,1.3s2,1,3,1.43c.73.35,1.47.69,2.21,1l2,.89c1.34.58,2.68,1.15,4,1.71l1.79.72,1.81.7c.8.31,1.61.61,2.41.9,1.62.59,3.23,1.16,4.86,1.7l2.44.8,2.39.74c1.06.32,2.12.64,3.18.94l2.72.74q2.44.66,4.91,1.23c.56.14,1.11.27,1.67.39l1.67.37,1.91.41.28.05,1.87.38,1.87.34c1.12.2,2.23.39,3.35.57s2.29.36,3.43.53h0l3.91.51,3.15.35,2.3.22,2.29.19c1.46.11,2.93.2,4.4.28l2.46.11c.91,0,1.82.06,2.73.08l1,0h.07c1.06,0,2.11,0,3.17,0,2.17,0,4.32,0,6.47-.11q1.66-.06,3.33-.15l1.73-.1.77-.05,1.35-.1,2.44-.2,2.32-.22,1.47-.16,2.69-.32,1.3-.17,1.6-.21c1.56-.23,3.1-.47,4.65-.72,2-.34,3.92-.7,5.88-1.1l.5-.1,3.18-.69,3.17-.74c1.4-.34,2.81-.7,4.21-1.08,2.09-.57,4.19-1.18,6.27-1.82,1.38-.43,2.77-.88,4.15-1.34s2.75-.94,4.12-1.44c1.11-.4,2.22-.82,3.32-1.25L392,490.7c1.36-.56,2.7-1.13,4-1.71l2-.89c1.11-.5,2.22-1,3.33-1.55l1-.48c.34-.15.68-.32,1-.49l1.37-.68,2.39-1.22.52-.27,2-1.07q7-3.79,13.56-8.16c.57-.37,1.13-.75,1.69-1.13s1.13-.76,1.69-1.16a.26.26,0,0,0,.11-.07c1.08-.75,2.15-1.52,3.21-2.29l2-1.52c1.05-.79,2.1-1.59,3.13-2.4l2.47-2q1.77-1.44,3.51-2.94l2.12-1.85.26-.23c.67-.6,1.35-1.21,2-1.83l1.22-1.13,1.59-1.5,1.29-1.25,1.66-1.63,1.64-1.65,1.6-1.68c.54-.56,1.06-1.12,1.59-1.68.87-.95,1.73-1.89,2.58-2.85l.11-.12c.64-.72,1.27-1.45,1.9-2.18s1.49-1.75,2.21-2.63c.46-.55.91-1.11,1.36-1.67l1.35-1.69,1.21-1.56q.31-.39.6-.78L468,432h0c.94-1.25,1.87-2.52,2.77-3.8l1.24-1.77c.73-1,1.44-2.1,2.14-3.16l1.2-1.82a2.9,2.9,0,0,0,.19-.29q1.67-2.61,3.26-5.28c.09-.14.18-.28.26-.43.37-.63.75-1.27,1.11-1.91.64-1.13,1.28-2.27,1.9-3.41h0q.93-1.71,1.83-3.45c.43-.8.84-1.61,1.24-2.43l1.2-2.45q3.81-7.95,6.8-16.18c.25-.69.49-1.37.73-2.06s.55-1.57.81-2.36c.43-1.28.84-2.57,1.24-3.85.22-.71.44-1.43.65-2.15.37-1.25.72-2.5,1.07-3.75a0,0,0,0,1,0,0c.26-.95.51-1.9.75-2.84q1.08-4.27,1.95-8.58,1.08-5.25,1.82-10.54c.39-2.73.71-5.46,1-8.2.13-1.43.25-2.87.36-4.3.05-.7.09-1.39.13-2.08s.09-1.49.12-2.24.07-1.43.09-2.15.05-1.3.06-1.94c0-.26,0-.52,0-.77,0-.75,0-1.49,0-2.23,0-.17,0-.33,0-.48,0-1.08,0-2.15,0-3.22,0-.72,0-1.44,0-2.16q-.07-3.24-.27-6.47-.07-1.32-.18-2.64c-.09-1.28-.2-2.55-.32-3.82-.27-2.75-.59-5.48-1-8.21q-.75-5.3-1.82-10.55a180.35,180.35,0,0,0-8.67-29.5c-.54-1.37-1.09-2.74-1.66-4.1l-.93-2.18c-.42-1-.86-1.95-1.31-2.93-.25-.56-.51-1.11-.77-1.67-.38-.83-.77-1.65-1.18-2.47s-.71-1.45-1.08-2.17c-.47-1-1-1.91-1.47-2.86-.68-1.29-1.37-2.56-2.08-3.83q-1.58-2.83-3.28-5.63c-.61-1-1.23-2-1.85-3l-.95-1.48q-.47-.73-1-1.47l8.73-8.73L504,194.91l21.83-21.83h0q2,2.7,4,5.45t3.82,5.55q3.78,5.64,7.2,11.42,2.31,3.88,4.46,7.84,1.25,2.26,2.43,4.56a.16.16,0,0,1,0,.07c.9,1.72,1.77,3.46,2.62,5.2a.05.05,0,0,1,0,.05c.46.92.91,1.86,1.35,2.79s.77,1.63,1.14,2.44.68,1.46,1,2.2.74,1.63,1.09,2.45c.17.39.35.78.51,1.18q2.28,5.26,4.29,10.62l.83,2.22c.28.74.55,1.47.81,2.21a250.21,250.21,0,0,1,12,48.68q.64,4.41,1.11,8.87l.3,3,.27,3c.17,2,.32,4,.43,6s.21,4,.29,6q.06,1.62.09,3.24c0,1.08,0,2.17.05,3.25l0,0v5.11l0,0c0,1.08,0,2.16-.05,3.25s-.06,2.16-.09,3.25c-.18,5-.52,10.06-1,15.08l-.3,3q-.46,4.46-1.11,8.86c-.12.82-.24,1.64-.37,2.45a0,0,0,0,0,0,0c-.47,3.07-1,6.12-1.58,9.17q-.65,3.41-1.4,6.78l-.51,2.27c-.28,1.2-.57,2.41-.86,3.61q-.88,3.62-1.88,7.2a.29.29,0,0,0,0,.09c-.66,2.37-1.35,4.72-2.08,7.07-.3,1-.61,1.94-.92,2.91q-.95,2.91-2,5.79c-.08.22-.15.44-.23.65s-.15.44-.23.66c-.18.52-.37,1.05-.57,1.57-.35,1-.7,1.92-1.06,2.88-.25.66-.51,1.33-.77,2s-.52,1.34-.79,2-.56,1.41-.85,2.12c-.38.94-.77,1.89-1.18,2.83s-.74,1.75-1.12,2.62c-.5,1.15-1,2.3-1.54,3.45-.35.78-.71,1.56-1.07,2.33-.22.5-.46,1-.7,1.51a250.81,250.81,0,0,1-25.92,42.94c-2.69,3.58-5.47,7.1-8.38,10.56,0,0,0,0,0,0q-1.44,1.71-2.9,3.4t-3,3.4q-1.51,1.68-3.06,3.34c-.74.79-1.48,1.58-2.23,2.36s-1.5,1.57-2.26,2.35h0l-.67.67-.38.38L501.42,503l-1,1h0c-.78.76-1.56,1.52-2.35,2.26s-1.57,1.49-2.36,2.23q-1.67,1.54-3.34,3.06t-3.4,3q-6.84,5.94-14,11.3A251.12,251.12,0,0,1,432,551.77q-3.83,1.82-7.68,3.47t-7.83,3.24l-3.38,1.31-.27.1c-1.23.46-2.45.91-3.68,1.35l-.12,0-.18.06-.18.07-.94.33q-6,2.09-12,3.88l-2.39.7-.81.23-2.62.72-.1,0c-1,.26-1.92.52-2.88.76q-2.94.78-5.91,1.45t-5.93,1.29l-2.76.56q-6.13,1.18-12.34,2.08-5.49.78-11,1.33l-2.42.23-2,.17c-1.55.13-3.1.24-4.66.34l-2.91.16-1.62.08-1.61.07c-1.21,0-2.42.08-3.64.11s-2.35.05-3.53.06h-5.15c-1.18,0-2.35,0-3.53-.06s-2.42-.06-3.63-.11l-1.61-.07-1.62-.08c-1.07,0-2.13-.11-3.19-.18-1.29-.08-2.59-.17-3.9-.28l-2.52-.21c-.85-.07-1.69-.15-2.54-.24q-5.44-.54-10.88-1.32l-.65-.09q-2.78-.4-5.52-.87-3-.51-6-1.08c-2-.39-4-.8-5.94-1.23-1-.21-2-.43-2.95-.66h0c-1.48-.34-2.95-.69-4.42-1.06s-2.94-.75-4.4-1.15l-2.94-.81q-8-2.26-15.85-5.07l-2-.7-2.88-1.08c-1-.36-1.92-.73-2.87-1.11q-7.89-3.09-15.6-6.75a249.54,249.54,0,0,1-42.94-25.92A254.26,254.26,0,0,1,147.62,504h0L144,500.39h0a254.26,254.26,0,0,1-21.85-25.44A249.54,249.54,0,0,1,96.23,432q-3.66-7.71-6.75-15.6c-.38-.95-.75-1.91-1.11-2.87l-1.08-2.88c-.24-.66-.47-1.31-.7-2q-2.81-7.86-5.07-15.85l-.81-2.94c-.4-1.46-.78-2.93-1.15-4.4s-.72-2.94-1.06-4.42c0,0,0,0,0,0-.23-1-.45-2-.66-2.95-.43-2-.84-4-1.23-5.94s-.74-4-1.08-6q-.47-2.75-.87-5.52l-.09-.65q-.78-5.43-1.32-10.88c-.09-.85-.17-1.69-.24-2.54s-.15-1.68-.21-2.52c-.11-1.31-.2-2.61-.28-3.9-.07-1.06-.13-2.12-.18-3.19,0-.54-.06-1.08-.08-1.62s0-1.08-.07-1.61c-.05-1.21-.08-2.42-.11-3.63s0-2.35-.06-3.53h0v-5.13h0c0-1.18,0-2.36.06-3.53s.06-2.43.11-3.64c0-.54,0-1.07.07-1.61s0-1.08.08-1.62c0-1,.1-1.94.16-2.91.1-1.56.21-3.11.34-4.66,0-.68.11-1.37.17-2s.15-1.61.23-2.42q.54-5.5,1.33-11,.9-6.19,2.08-12.34c.18-.92.37-1.84.56-2.76q.61-3,1.29-5.93t1.45-5.91c.24-1,.5-1.92.76-2.88a.44.44,0,0,0,0-.1l.72-2.62c.08-.27.16-.54.23-.81.23-.8.46-1.6.7-2.39q1.78-6,3.88-12l.33-.94a1.34,1.34,0,0,0,.07-.18,1.34,1.34,0,0,1,.07-.18.56.56,0,0,1,0-.12c.44-1.23.89-2.45,1.35-3.68,0-.09.06-.18.1-.27.43-1.13.87-2.25,1.31-3.38q1.55-3.94,3.24-7.83T96.23,216a251.12,251.12,0,0,1,25.92-42.93q5.35-7.15,11.3-14,1.49-1.71,3-3.4t3.06-3.34c.74-.79,1.48-1.58,2.23-2.36s1.5-1.57,2.26-2.35h0l.45-.44.59-.6.76-.77h0l1.37-1.36.44-.45h0c.78-.76,1.56-1.52,2.35-2.26s1.57-1.49,2.36-2.23q1.66-1.55,3.34-3.06t3.4-3q1.69-1.45,3.4-2.9s0,0,0,0c3.46-2.91,7-5.69,10.56-8.38A250.81,250.81,0,0,1,216,96.24c.5-.24,1-.48,1.51-.7l2.33-1.07c1.15-.53,2.3-1,3.45-1.54l2.62-1.12c.94-.41,1.89-.8,2.83-1.18l2.12-.85,2-.79,2-.77,2.88-1.06c.52-.2,1.05-.39,1.57-.57l.66-.23.65-.23q2.88-1,5.79-1.95l2.91-.92c2.35-.73,4.7-1.42,7.07-2.08l.09,0q3.58-1,7.2-1.88l3.61-.86,2.27-.51q3.38-.75,6.78-1.4c3-.58,6.1-1.11,9.17-1.58h0l2.45-.37q4.41-.65,8.86-1.11l3-.3c5-.47,10.05-.81,15.08-1l3.25-.09,3.25,0,0,0h5.11l0,0,3.25,0,3.24.09c2,.08,4,.17,6,.29s4,.26,6,.43l3,.27,3,.3q4.46.47,8.87,1.11a249.35,249.35,0,0,1,25.94,5.11l2.58.67A36.06,36.06,0,0,0,420.18,72a35.21,35.21,0,0,0,4-4.2,35.73,35.73,0,0,0,7.83-19V41.48A36,36,0,0,0,405.22,10.3l-.3-.08q-8.79-2.26-17.68-4Q373.69,3.52,360,2l-1.83-.2c-3.62-.39-7.25-.71-10.87-1L343.42.58Q341.5.46,339.58.37h-.31L335.93.22,332.36.11C331,.07,329.58,0,328.19,0S325.42,0,324,0h0c-1.39,0-2.79,0-4.18,0s-2.78,0-4.17.08Q312,.2,308.32.38c-1.2,0-2.4.12-3.61.19l-.24,0-3.62.23h-.22c-3.6.27-7.21.59-10.81,1L288,2q-13.69,1.51-27.25,4.2A324.71,324.71,0,0,0,228,14.49c-1.32.4-2.64.82-3.95,1.25s-2.34.76-3.51,1.15l-3.72,1.27-.8.28h0l-2.75,1c-1.45.53-2.91,1.07-4.36,1.62q-3.7,1.39-7.36,2.9c-1.22.49-2.43,1-3.65,1.51s-2.28,1-3.42,1.47l-2.56,1.13c-1.27.57-2.55,1.14-3.81,1.73s-2.52,1.18-3.78,1.79a322.66,322.66,0,0,0-40.31,23q-11.48,7.66-22.24,16.29L120.34,72l-2.44,2q-3,2.48-5.94,5L109,81.57c-1.24,1.1-2.48,2.21-3.71,3.35-.65.58-1.29,1.18-1.93,1.77q-3.95,3.68-7.8,7.51l-1.16,1.16q-4,4-7.76,8c-.59.64-1.19,1.28-1.77,1.93-1.27,1.38-2.52,2.76-3.75,4.16L79,112c-.77.88-1.53,1.78-2.29,2.67-.15.16-.28.32-.41.48-.78.93-1.55,1.85-2.32,2.79l-2,2.41h0c-.18.2-.33.39-.48.59s-.45.57-.67.85Q62.24,132.53,54.56,144a320.75,320.75,0,0,0-23,40.32q-1.18,2.46-2.33,5t-2.23,5c-.53,1.21-1.05,2.41-1.56,3.63-.3.7-.59,1.4-.88,2.11s-.58,1.39-.86,2.09c-.5,1.22-1,2.44-1.46,3.66s-1,2.45-1.42,3.68q-1.23,3.27-2.39,6.57A322.45,322.45,0,0,0,6.19,260.76q-1.77,9-3.05,18c-.12.86-.24,1.73-.35,2.6-.29,2.22-.56,4.43-.8,6.65-.07.61-.14,1.22-.2,1.83,0,.23-.05.46-.08.69s0,.51-.07.77l-.15,1.45c0,.14,0,.28,0,.43-.11,1.22-.22,2.44-.32,3.66-.09,1-.17,2.07-.25,3.11s-.15,2.17-.22,3.25c-.08,1.25-.15,2.5-.22,3.75l0,.54c-.06,1.33-.12,2.66-.17,4-.08,2-.14,4.09-.18,6.14v.43c0,1.17,0,2.33,0,3.5,0,.82,0,1.63,0,2.45,0,1.05,0,2.09,0,3.14,0,2.09,0,4.17.12,6.26,0,1,.07,2.08.11,3.12q.07,2.07.18,4.11a.92.92,0,0,0,0,.16c.07,1.34.14,2.68.23,4,.07,1.13.15,2.25.23,3.38s.15,2,.24,3,.19,2.28.3,3.42l.09.91c.08.88.17,1.77.27,2.66,0,.25.05.5.08.76l.06.53L2,360c.24,2.22.51,4.45.8,6.67.11.87.23,1.74.35,2.6.25,1.72.5,3.43.77,5.14v0c.17,1.08.35,2.15.52,3.23q.55,3.19,1.14,6.38a0,0,0,0,1,0,0c.21,1.06.41,2.12.62,3.18Q9,401.13,12.9,414.8c.44,1.48.88,3,1.33,4.44s.94,3,1.42,4.51l1.23,3.73c.42,1.24.84,2.48,1.28,3.72.09.26.18.53.28.8h0l.36,1c.2.57.41,1.14.62,1.71q2.19,6.06,4.66,12.07.87,2.15,1.78,4.27,2.73,6.36,5.71,12.6a321.34,321.34,0,0,0,23,40.31q7.66,11.47,16.29,22.24c.38.48.76,1,1.15,1.43l2,2.43q2.47,3,5,5.94c.85,1,1.7,2,2.56,2.92,1.1,1.24,2.21,2.48,3.35,3.71.58.65,1.18,1.29,1.77,1.93q3.66,3.93,7.48,7.77l1.48,1.48c2.55,2.55,5.14,5,7.76,7.47.64.59,1.28,1.19,1.93,1.77,1.23,1.14,2.47,2.25,3.71,3.35L112,569q2.94,2.55,5.94,5l2.43,2c.47.39,1,.77,1.43,1.15q10.76,8.61,22.24,16.29a321.34,321.34,0,0,0,40.31,23q6.24,3,12.6,5.71,2.13.92,4.27,1.78,6,2.48,12.07,4.66l1.71.62,1,.36h0l.8.28c1.24.44,2.48.86,3.72,1.28l3.73,1.23c1.5.48,3,1,4.51,1.42l4.44,1.33q13.65,4,27.55,6.71l3.18.62h0q3.18.59,6.38,1.14l3.23.52h0c1.71.27,3.42.52,5.14.77l2.6.35c2.22.29,4.45.56,6.67.8l.53.06.53.06.76.08,2.66.27.91.09,3.42.3,3,.24,3.38.23c1.34.09,2.68.16,4,.23h.16q2,.1,4.11.18l3.12.11c2.09.07,4.17.1,6.26.12h5.61c1.16,0,2.33,0,3.49,0h.42q3.06-.06,6.14-.18l4-.17.54,0,3.75-.22,3.25-.22,3.11-.25,3.66-.32.43,0,1.45-.15.77-.07.69-.08L360,646c2.22-.24,4.43-.51,6.65-.8l2.6-.35q9-1.27,18-3.05A322.45,322.45,0,0,0,432,629.55q3.3-1.15,6.57-2.39l3.68-1.42c1.22-.48,2.44-1,3.66-1.46.7-.28,1.4-.56,2.09-.86l2.11-.88c1.22-.51,2.42-1,3.63-1.56q2.5-1.1,5-2.23t4.95-2.33a320.75,320.75,0,0,0,40.32-23q11.47-7.66,22.23-16.29l.85-.67c.2-.15.39-.3.59-.48h0l2.41-2c.94-.77,1.86-1.54,2.79-2.32.16-.13.32-.26.48-.41.89-.76,1.79-1.52,2.67-2.29l2.47-2.16c1.4-1.23,2.78-2.48,4.16-3.75.65-.58,1.29-1.18,1.93-1.77q4.08-3.8,8-7.76l1.16-1.16q3.84-3.85,7.51-7.8c.59-.64,1.19-1.28,1.77-1.93,1.14-1.23,2.25-2.47,3.35-3.71.86-1,1.71-1.94,2.56-2.92q2.55-2.94,5-5.94c.67-.81,1.33-1.62,2-2.44l1.14-1.42q8.61-10.75,16.29-22.24a322.66,322.66,0,0,0,23-40.31c.61-1.26,1.2-2.52,1.79-3.78s1.16-2.54,1.73-3.81c.38-.85.76-1.7,1.13-2.56q.75-1.71,1.47-3.42c.51-1.22,1-2.43,1.51-3.65q1.5-3.66,2.9-7.36c.55-1.45,1.09-2.91,1.62-4.36.33-.92.66-1.83,1-2.75h0c.09-.27.18-.54.28-.8q.95-2.7,1.84-5.42.78-2.37,1.53-4.76a324.94,324.94,0,0,0,8.59-33.77q2.69-13.54,4.2-27.25c.07-.61.14-1.22.2-1.82.38-3.6.7-7.21,1-10.81a1.48,1.48,0,0,1,0-.22c.08-1.21.16-2.42.23-3.62,0-.09,0-.17,0-.24.07-1.21.14-2.41.19-3.61q.18-3.66.27-7.32c0-1.39.07-2.78.08-4.17s0-2.79,0-4.18v0C648,322.58,648,321.2,648,319.81ZM370.55,226.54,360,237.09l-36,36-36-36-10.56-10.56-.44.2.43-.21.45-.21.6-.28a.09.09,0,0,1,.06,0c.71-.34,1.44-.66,2.16-1l.42-.18c.74-.33,1.48-.64,2.23-.94s1.63-.65,2.45-1,1.46-.55,2.2-.81l.26-.09c.83-.29,1.65-.56,2.48-.83s1.67-.53,2.5-.77l1.88-.54q2.81-.79,5.69-1.41,2.54-.57,5.11-1c1.7-.3,3.41-.55,5.14-.74l2.58-.28c1.71-.17,3.44-.3,5.17-.37.86,0,1.73-.07,2.59-.09s1.73,0,2.59,0h0c.87,0,1.72,0,2.58,0s1.73.05,2.59.09c1.73.07,3.46.2,5.17.37l2.58.28,1.49.19c1.45.19,2.91.42,4.36.67q5.12.9,10.13,2.29c1,.26,1.91.54,2.86.83s1.74.55,2.6.84l.57.19c.36.11.71.23,1.07.36q3.6,1.26,7.06,2.79c.8.34,1.59.7,2.39,1.07l.05,0,1.06.5c.38.18.76.36,1.14.56C371.32,226.9,370.94,226.71,370.55,226.54Z" style="fill:#6c50ed"/></svg>
